HIERARCHY
ROOT Hips
{
	OFFSET 0.00000 0.00000 0.00000
	CHANNELS 6 Xposition Yposition Zposition Zrotation Yrotation Xrotation 
	JOINT LHipJoint
	{
		OFFSET 0 0 0
		CHANNELS 3 Zrotation Yrotation Xrotation
		JOINT LeftUpLeg
		{
			OFFSET 1.42489 -1.84941 0.69647
			CHANNELS 3 Zrotation Yrotation Xrotation
			JOINT LeftLeg
			{
				OFFSET 2.44443 -6.71602 0.00000
				CHANNELS 3 Zrotation Yrotation Xrotation
				JOINT LeftFoot
				{
					OFFSET 2.62838 -7.22137 0.00000
					CHANNELS 3 Zrotation Yrotation Xrotation
					JOINT LeftToeBase
					{
						OFFSET 0.24036 -0.66037 2.29953
						CHANNELS 3 Zrotation Yrotation Xrotation
						End Site
						{
							OFFSET 0.00000 -0.00000 1.19837
						}
					}
				}
			}
		}
	}
	JOINT RHipJoint
	{
		OFFSET 0 0 0
		CHANNELS 3 Zrotation Yrotation Xrotation
		JOINT RightUpLeg
		{
			OFFSET -1.37055 -1.84941 0.69647
			CHANNELS 3 Zrotation Yrotation Xrotation
			JOINT RightLeg
			{
				OFFSET -2.54834 -7.00152 0.00000
				CHANNELS 3 Zrotation Yrotation Xrotation
				JOINT RightFoot
				{
					OFFSET -2.65692 -7.29983 0.00000
					CHANNELS 3 Zrotation Yrotation Xrotation
					JOINT RightToeBase
					{
						OFFSET -0.18839 -0.51760 2.29390
						CHANNELS 3 Zrotation Yrotation Xrotation
						End Site
						{
							OFFSET -0.00000 -0.00000 1.18261
						}
					}
				}
			}
		}
	}
	JOINT LowerBack
	{
		OFFSET 0 0 0
		CHANNELS 3 Zrotation Yrotation Xrotation
		JOINT Spine
		{
			OFFSET 0.05220 2.15489 0.05011
			CHANNELS 3 Zrotation Yrotation Xrotation
			JOINT Spine1
			{
				OFFSET -0.07653 2.14219 -0.05668
				CHANNELS 3 Zrotation Yrotation Xrotation
				JOINT Neck
				{
					OFFSET 0 0 0
					CHANNELS 3 Zrotation Yrotation Xrotation
					JOINT Neck1
					{
						OFFSET 0.01370 1.58638 0.01447
						CHANNELS 3 Zrotation Yrotation Xrotation
						JOINT Head
						{
							OFFSET 0.23548 1.54190 -0.21747
							CHANNELS 3 Zrotation Yrotation Xrotation
							End Site
							{
								OFFSET 0.07132 1.59823 -0.08163
							}
						}
					}
				}
				JOINT LeftShoulder
				{
					OFFSET 0 0 0
					CHANNELS 3 Zrotation Yrotation Xrotation
					JOINT LeftArm
					{
						OFFSET 3.47056 1.45357 -0.58896
						CHANNELS 3 Zrotation Yrotation Xrotation
						JOINT LeftForeArm
						{
							OFFSET 5.19069 -0.00000 0.00000
							CHANNELS 3 Zrotation Yrotation Xrotation
							JOINT LeftHand
							{
								OFFSET 3.30016 -0.00000 0.00000
								CHANNELS 3 Zrotation Yrotation Xrotation
								JOINT LeftFingerBase
								{
									OFFSET 0 0 0
									CHANNELS 3 Zrotation Yrotation Xrotation
									JOINT LeftHandIndex1
									{
										OFFSET 0.70770 -0.00000 0.00000
										CHANNELS 3 Zrotation Yrotation Xrotation
										End Site
										{
											OFFSET 0.57056 -0.00000 0.00000
										}
									}
								}
								JOINT LThumb
								{
									OFFSET 0 0 0
									CHANNELS 3 Zrotation Yrotation Xrotation
									End Site
									{
										OFFSET 0.57928 -0.00000 0.57928
									}
								}
							}
						}
					}
				}
				JOINT RightShoulder
				{
					OFFSET 0 0 0
					CHANNELS 3 Zrotation Yrotation Xrotation
					JOINT RightArm
					{
						OFFSET -2.89018 2.03305 -0.26731
						CHANNELS 3 Zrotation Yrotation Xrotation
						JOINT RightForeArm
						{
							OFFSET -5.23924 -0.00000 0.00000
							CHANNELS 3 Zrotation Yrotation Xrotation
							JOINT RightHand
							{
								OFFSET -3.32953 -0.00000 0.00000
								CHANNELS 3 Zrotation Yrotation Xrotation
								JOINT RightFingerBase
								{
									OFFSET 0 0 0
									CHANNELS 3 Zrotation Yrotation Xrotation
									JOINT RightHandIndex1
									{
										OFFSET -0.60741 -0.00000 0.00000
										CHANNELS 3 Zrotation Yrotation Xrotation
										End Site
										{
											OFFSET -0.48971 -0.00000 0.00000
										}
									}
								}
								JOINT RThumb
								{
									OFFSET 0 0 0
									CHANNELS 3 Zrotation Yrotation Xrotation
									End Site
									{
										OFFSET -0.49719 -0.00000 0.49719
									}
								}
							}
						}
					}
				}
			}
		}
	}
}
MOTION
Frames: 16
Frame Time: .0083333
29.9696 14.8879 -28.2403 0 0 0 0 0 0 -21 0 0 0 0 0 0 0 0 0 0 0 0 0 0 21 0 0 0 0 0 0 0 0 0 0 0 0 0 0 0 0 0 0 0 0 0 0 -16 0 0 21 0 0 11 0 0 0 -8 0 0 0 0 0 0 0 0 0 0 0 0 0 0 0 0 0 0 0 0 8 0 0 0 0 0 0 0 0 0 0 0 0 0 0 0 0 0
29.9696 14.8879 -28.2403 -3.0899 -44.9106 21.9761 0.0000 0.0000 0.0000 -19.4047 -10.1471 -70.0621 13.8816 19.0778 71.8427 1.9165 3.4853 -27.5897 0.0005 0.1460 0.4011 0.0000 0.0000 0.0000 4.7859 20.2756 -58.7315 -17.3074 -19.8253 82.1052 -3.0453 -6.0538 -35.4836 -2.0049 8.8762 -25.4089 4.7316 -0.5703 40.8378 0.0615 -0.2311 17.0980 -2.2733 -0.2837 -0.5285 6.9454 0.9541 3.2359 -5.7299 0.3661 -29.3978 -3.2279 -0.2036 -9.7533 -0.0000 -0.0000 0.0000 44.5185 -68.2282 -60.3410 62.7962 -57.0101 -36.6773 -0.0000 0.0000 -55.2443 35.7713 9.9421 7.0906 -7.1250 0.0000 -0.0000 7.8931 42.0378 -0.5808 -0.0000 -0.0000 0.0000 66.2804 30.5738 43.4611 -129.0988 53.3525 -93.1045 0.0000 0.0000 6.8338 -32.8472 -9.1289 5.8485 7.1250 -0.0000 -0.0000 -5.2407 -40.7530 -0.5506
29.9690 14.8918 -28.2391 -3.1853 -44.8591 22.1052 0.0000 0.0000 0.0000 -19.3063 -10.1725 -70.1099 13.8866 19.0793 71.8580 1.9261 3.4553 -27.6410 0.0003 0.1174 0.3225 0.0000 0.0000 0.0000 4.9339 20.2003 -58.6958 -17.2535 -19.8182 81.9462 -3.0275 -6.3587 -35.5370 -2.1083 9.0881 -26.0715 4.7446 -0.5751 40.7884 0.1042 -0.2328 17.1129 -2.2349 -0.2860 -0.4971 6.9188 0.9803 3.2103 -5.7439 0.3930 -29.4427 -3.2314 -0.1881 -9.7626 0.0000 0.0000 0.0000 44.4642 -68.1291 -60.3138 62.7965 -57.0102 -36.6775 -0.0000 0.0000 -55.3171 35.8024 9.8402 7.0273 -7.1250 0.0000 -0.0000 7.9176 41.9184 -0.6061 0.0000 0.0000 0.0000 66.2369 30.6379 43.4519 -129.0272 53.3804 -93.0470 0.0000 0.0000 6.8249 -32.8747 -9.0925 5.8317 7.1250 -0.0000 -0.0000 -5.2652 -40.7130 -0.5584
29.9627 14.8822 -28.2354 -3.3509 -44.9318 22.2105 0.0000 0.0000 0.0000 -19.2540 -9.9502 -70.1834 13.8909 19.0806 71.8710 1.9337 3.3373 -27.6380 0.0003 0.1183 0.3250 0.0000 0.0000 0.0000 5.1010 20.2492 -58.6033 -17.2072 -19.8120 81.8097 -3.0973 -6.1290 -35.7925 -1.9943 8.8542 -25.3403 4.7202 -0.5121 40.8174 0.1387 -0.1707 17.1398 -2.2070 -0.2615 -0.4717 6.8432 0.9677 3.1853 -5.7004 0.3701 -29.4976 -3.2017 -0.1979 -9.7804 -0.0000 0.0000 0.0000 44.3930 -68.1069 -60.1797 62.8373 -57.0198 -36.7118 -0.0000 0.0000 -55.2839 35.8462 10.0073 7.1557 -7.1250 0.0000 -0.0000 7.9639 42.1253 -0.5688 -0.0000 0.0000 0.0000 66.1643 30.6280 43.4200 -129.0623 53.3667 -93.0752 0.0000 0.0000 6.8088 -32.9199 -9.2504 5.9416 7.1250 -0.0000 -0.0000 -5.3057 -40.9031 -0.5378
29.9610 14.9002 -28.2268 -3.2512 -45.0618 22.1258 0.0000 0.0000 0.0000 -19.4131 -9.8855 -70.0089 13.8429 19.0657 71.7243 1.9449 3.3748 -27.7299 0.0002 0.0917 0.2521 0.0000 0.0000 0.0000 5.0799 20.1916 -58.3977 -17.1135 -19.7991 81.5332 -3.1220 -6.0907 -35.9028 -1.9862 8.8373 -25.2877 4.5687 -0.4576 40.8614 0.1152 -0.1628 17.1583 -2.1568 -0.2661 -0.4670 6.8361 1.0055 3.1194 -5.7566 0.4046 -29.4851 -3.2224 -0.1753 -9.7597 0.0000 -0.0000 0.0000 44.3031 -68.2609 -60.3402 62.7043 -56.9885 -36.6002 -0.0000 0.0000 -55.0674 35.5723 10.2025 7.2199 -7.1250 0.0000 -0.0000 7.7204 42.3279 -0.5123 0.0000 -0.0000 0.0000 66.1207 30.6068 43.4496 -129.1031 53.3509 -93.1079 0.0000 0.0000 6.8198 -32.8717 -9.0836 5.8254 7.1250 -0.0000 -0.0000 -5.2624 -40.7022 -0.5595
29.9622 14.9146 -28.2350 -3.3535 -44.9073 22.3545 0.0000 0.0000 0.0000 -19.2027 -10.0871 -70.0695 13.7979 19.0516 71.5865 1.9362 3.4672 -27.7139 0.0000 0.0295 0.0810 0.0000 0.0000 0.0000 5.2477 20.1108 -58.4415 -17.0263 -19.7866 81.2756 -3.1081 -6.3046 -35.9327 -2.0266 8.9213 -25.5494 4.4212 -0.7953 40.8257 0.0740 -0.6013 17.0550 -1.9751 -0.4862 -0.5996 6.1467 1.3358 3.2507 -5.4849 0.8885 -29.4677 -3.0487 0.1079 -9.7493 0.0000 0.0000 0.0000 42.0926 -67.4679 -58.2227 62.7053 -56.9888 -36.6011 -0.0000 0.0000 -55.1940 35.4702 10.2369 7.2167 -7.1250 0.0000 -0.0000 7.6280 42.3571 -0.5006 0.0000 0.0000 0.0000 66.6943 31.2289 44.8469 -128.4764 53.5918 -92.6044 0.0000 0.0000 6.9034 -33.1164 -8.9848 5.8167 7.1250 -0.0000 -0.0000 -5.4802 -40.6102 -0.5952
29.9608 14.9247 -28.2354 -3.3959 -44.8783 22.4542 0.0000 0.0000 0.0000 -19.1513 -10.1220 -70.0486 13.7467 19.0354 71.4294 1.9321 3.5011 -27.7020 0.0000 -0.0004 -0.0012 0.0000 0.0000 0.0000 5.3514 20.0534 -58.3756 -16.9344 -19.7732 81.0042 -3.1179 -6.3622 -36.0112 -2.0279 8.9240 -25.5577 4.3364 -0.8729 40.8017 0.0742 -0.7208 17.0409 -1.8910 -0.5494 -0.6159 5.9343 1.4513 3.2240 -5.4183 1.0477 -29.4549 -3.0012 0.2007 -9.7307 0.0000 -0.0000 0.0000 41.4664 -67.2456 -57.6984 62.6499 -56.9757 -36.5546 -0.0000 0.0000 -55.1672 35.3945 10.2901 7.2334 -7.1250 0.0000 -0.0000 7.5603 42.4118 -0.4858 0.0000 -0.0000 0.0000 66.8181 31.4104 45.2492 -128.3201 53.6510 -92.4785 0.0000 0.0000 6.8921 -33.2302 -8.9463 5.8171 7.1250 -0.0000 -0.0000 -5.5813 -40.5760 -0.6110
29.9596 14.9367 -28.2359 -3.4419 -44.8378 22.5512 0.0000 0.0000 0.0000 -19.0877 -10.1765 -70.0091 13.6970 19.0196 71.2771 1.9299 3.5460 -27.7083 0.0000 -0.0295 -0.0810 0.0000 0.0000 0.0000 5.4655 19.9890 -58.2896 -16.8403 -19.7589 80.7259 -3.1310 -6.4115 -36.1027 -2.0307 8.9298 -25.5760 4.2708 -0.9442 40.7752 0.0795 -0.8267 17.0339 -1.8162 -0.6050 -0.6223 5.7512 1.5543 3.1782 -5.3606 1.1890 -29.4347 -2.9598 0.2825 -9.7072 0.0000 -0.0000 0.0000 40.9537 -67.0460 -57.2757 62.5873 -56.9609 -36.5021 -0.0000 0.0000 -55.1380 35.3506 10.3157 7.2394 -7.1250 0.0000 -0.0000 7.5209 42.4373 -0.4785 0.0000 -0.0000 0.0000 66.9130 31.5675 45.5897 -128.2018 53.6955 -92.3832 0.0000 0.0000 6.8693 -33.3320 -8.9124 5.8178 7.1250 -0.0000 -0.0000 -5.6717 -40.5461 -0.6252
29.9582 14.9490 -28.2364 -3.4895 -44.7839 22.6436 0.0000 0.0000 0.0000 -19.0162 -10.2441 -69.9596 13.6494 19.0042 71.1308 1.9288 3.5955 -27.7239 0.0001 -0.0590 -0.1620 0.0000 0.0000 0.0000 5.5872 19.9185 -58.1882 -16.7436 -19.7438 80.4397 -3.1455 -6.4627 -36.2024 -2.0393 8.9474 -25.6309 4.2262 -1.0044 40.7461 0.0928 -0.9123 17.0343 -1.7505 -0.6497 -0.6180 5.6070 1.6389 3.1149 -5.3165 1.3035 -29.4098 -2.9273 0.3483 -9.6803 0.0000 0.0000 0.0000 40.5847 -66.8729 -56.9726 62.5170 -56.9442 -36.4432 -0.0000 0.0000 -55.1179 35.3439 10.3034 7.2291 -7.1250 0.0000 -0.0000 7.5144 42.4217 -0.4810 0.0000 0.0000 0.0000 66.9672 31.6914 45.8428 -128.1248 53.7244 -92.3211 0.0000 0.0000 6.8409 -33.4079 -8.8799 5.8135 7.1250 -0.0000 -0.0000 -5.7390 -40.5153 -0.6370
29.9566 14.9604 -28.2370 -3.5315 -44.7175 22.7272 0.0000 0.0000 0.0000 -18.9433 -10.3224 -69.9062 13.6033 18.9893 70.9893 1.9277 3.6468 -27.7403 0.0002 -0.0884 -0.2428 0.0000 0.0000 0.0000 5.7082 19.8425 -58.0755 -16.6446 -19.7279 80.1465 -3.1636 -6.5037 -36.3158 -2.0493 8.9681 -25.6955 4.1947 -1.0526 40.7138 0.1144 -0.9793 17.0415 -1.6895 -0.6850 -0.6037 5.4914 1.7030 3.0476 -5.2775 1.3895 -29.3924 -2.8992 0.3974 -9.6572 -0.0000 -0.0000 0.0000 40.3432 -66.7152 -56.7621 62.4480 -56.9277 -36.3854 -0.0000 0.0000 -55.1104 35.3930 10.2585 7.2113 -7.1250 0.0000 -0.0000 7.5580 42.3739 -0.4928 -0.0000 -0.0000 0.0000 66.9799 31.7813 46.0144 -128.0919 53.7367 -92.2946 0.0000 0.0000 6.8096 -33.4651 -8.8631 5.8152 7.1250 -0.0000 -0.0000 -5.7897 -40.5010 -0.6447
29.9546 14.9710 -28.2371 -3.5714 -44.6458 22.7979 0.0000 0.0000 0.0000 -18.8720 -10.4034 -69.8411 13.5597 18.9750 70.8553 1.9278 3.6966 -27.7640 0.0003 -0.1132 -0.3110 0.0000 0.0000 0.0000 5.8305 19.7650 -57.9386 -16.5425 -19.7109 79.8441 -3.1868 -6.5305 -36.4475 -2.0617 8.9935 -25.7749 4.1841 -1.0750 40.6770 0.1466 -1.0095 17.0616 -1.6407 -0.7017 -0.5714 5.4327 1.7372 2.9683 -5.2578 1.4323 -29.3814 -2.8840 0.4212 -9.6363 -0.0000 -0.0000 0.0000 40.3092 -66.6192 -56.7389 62.3626 -56.9073 -36.3138 -0.0000 0.0000 -55.0932 35.4914 10.1807 7.1835 -7.1250 0.0000 -0.0000 7.6457 42.2920 -0.5141 -0.0000 -0.0000 0.0000 66.9261 31.8186 46.0490 -128.1219 53.7254 -92.3188 0.0000 0.0000 6.7724 -33.4968 -8.8579 5.8188 7.1250 -0.0000 -0.0000 -5.8179 -40.4981 -0.6483
29.9524 14.9815 -28.2370 -3.6194 -44.5605 22.8658 0.0000 0.0000 0.0000 -18.7857 -10.5011 -69.7645 13.5179 18.9612 70.7265 1.9273 3.7602 -27.7903 0.0005 -0.1443 -0.3965 0.0000 0.0000 0.0000 5.9650 19.6842 -57.7767 -16.4358 -19.6927 79.5275 -3.2130 -6.5575 -36.5948 -2.0797 9.0302 -25.8897 4.1874 -1.0994 40.6442 0.1843 -1.0369 17.0829 -1.5943 -0.7165 -0.5385 5.3731 1.7589 2.9018 -5.2311 1.4585 -29.3840 -2.8654 0.4361 -9.6240 0.0000 0.0000 0.0000 40.3135 -66.5495 -56.7522 62.2602 -56.8827 -36.2280 -0.0000 0.0000 -55.0555 35.6095 10.0992 7.1580 -7.1250 0.0000 -0.0000 7.7510 42.2080 -0.5375 0.0000 0.0000 0.0000 66.8602 31.8415 46.0622 -128.1633 53.7099 -92.3522 0.0000 0.0000 6.7480 -33.5087 -8.8532 5.8183 7.1250 -0.0000 -0.0000 -5.8285 -40.4936 -0.6501
29.9501 14.9924 -28.2360 -3.6597 -44.4750 22.9152 0.0000 0.0000 0.0000 -18.7033 -10.6108 -69.6630 13.4757 18.9472 70.5965 1.9269 3.8393 -27.8254 0.0008 -0.1786 -0.4908 0.0000 0.0000 0.0000 6.0969 19.6010 -57.5805 -16.3228 -19.6727 79.1919 -3.2445 -6.5687 -36.7608 -2.0967 9.0647 -25.9978 4.1901 -1.1237 40.6163 0.2213 -1.0647 17.1077 -1.5480 -0.7316 -0.5030 5.3120 1.7772 2.8486 -5.2009 1.4812 -29.3969 -2.8455 0.4491 -9.6183 0.0000 0.0000 0.0000 40.3371 -66.4842 -56.7804 62.1512 -56.8564 -36.1367 -0.0000 0.0000 -55.0170 35.6118 10.0944 7.1552 -7.1250 0.0000 -0.0000 7.7529 42.2024 -0.5387 0.0000 0.0000 0.0000 66.7880 31.8594 46.0640 -128.2047 53.6944 -92.3855 0.0000 0.0000 6.7373 -33.5039 -8.8517 5.8163 7.1250 -0.0000 -0.0000 -5.8242 -40.4914 -0.6500
29.9475 15.0034 -28.2343 -3.6968 -44.3863 22.9508 0.0000 0.0000 0.0000 -18.6200 -10.7345 -69.5407 13.4326 18.9328 70.4640 1.9259 3.9358 -27.8642 0.0011 -0.2188 -0.6011 0.0000 0.0000 0.0000 6.2293 19.5159 -57.3549 -16.2043 -19.6510 78.8397 -3.2767 -6.5857 -36.9320 -2.1190 9.1096 -26.1388 4.1960 -1.1500 40.5916 0.2566 -1.0940 17.1357 -1.5048 -0.7471 -0.4649 5.2519 1.7928 2.8035 -5.1672 1.5013 -29.4150 -2.8245 0.4603 -9.6163 -0.0000 0.0000 0.0000 40.3811 -66.4090 -56.8075 62.0457 -56.8309 -36.0484 -0.0000 0.0000 -54.9894 35.5700 10.1265 7.1666 -7.1250 0.0000 -0.0000 7.7158 42.2361 -0.5296 -0.0000 0.0000 0.0000 66.7133 31.8779 46.0619 -128.2346 53.6832 -92.4096 0.0000 0.0000 6.7247 -33.5155 -8.8552 5.8211 7.1250 -0.0000 -0.0000 -5.8346 -40.4966 -0.6504
29.9449 15.0153 -28.2317 -3.7414 -44.2985 22.9807 0.0000 0.0000 0.0000 -18.5269 -10.8705 -69.3947 13.3879 18.9178 70.3260 1.9241 4.0511 -27.9077 0.0016 -0.2599 -0.7140 0.0000 0.0000 0.0000 6.3704 19.4321 -57.0993 -16.0810 -19.6277 78.4728 -3.3100 -6.6022 -37.1078 -2.1415 9.1549 -26.2810 4.2062 -1.1723 40.5697 0.2932 -1.1176 17.1670 -1.4643 -0.7598 -0.4237 5.2031 1.8039 2.7579 -5.1366 1.5155 -29.4309 -2.8060 0.4679 -9.6136 0.0000 -0.0000 0.0000 40.4491 -66.3675 -56.8685 61.9339 -56.8036 -35.9548 -0.0000 0.0000 -54.9362 35.5120 10.1656 7.1785 -7.1250 0.0000 -0.0000 7.6641 42.2763 -0.5184 0.0000 -0.0000 0.0000 66.6308 31.8911 46.0441 -128.2617 53.6730 -92.4314 0.0000 0.0000 6.7137 -33.5366 -8.8594 5.8285 7.1250 -0.0000 -0.0000 -5.8534 -40.5036 -0.6515
29.9423 15.0282 -28.2285 -3.7865 -44.2143 23.0033 0.0000 0.0000 0.0000 -18.4303 -11.0194 -69.2271 13.3399 18.9015 70.1781 1.9212 4.1873 -27.9541 0.0022 -0.3026 -0.8315 0.0000 0.0000 0.0000 6.5124 19.3484 -56.8263 -15.9550 -19.6031 78.0977 -3.3412 -6.6217 -37.2738 -2.1635 9.1986 -26.4187 4.2171 -1.1928 40.5446 0.3261 -1.1396 17.2021 -1.4288 -0.7715 -0.3772 5.1629 1.8127 2.7113 -5.1074 1.5271 -29.4419 -2.7891 0.4735 -9.6091 -0.0000 0.0000 0.0000 40.5305 -66.3362 -56.9422 61.8337 -56.7791 -35.8710 -0.0000 0.0000 -54.8812 35.3588 10.2589 7.2025 -7.1250 0.0000 -0.0000 7.5267 42.3701 -0.4914 -0.0000 0.0000 0.0000 66.5497 31.9074 46.0180 -128.2760 53.6676 -92.4429 0.0000 0.0000 6.7030 -33.5599 -8.8583 5.8329 7.1250 -0.0000 -0.0000 -5.8742 -40.5046 -0.6537
